<?xml version="1.0" encoding="UTF-8"?>
<svg id="Warstwa_1" data-name="Warstwa 1" xmlns="http://www.w3.org/2000/svg" viewBox="0 0 330.84 252.47">
  <defs>
    <style>
      .cls-1 {
        fill: #d1c6b4;
      }

      .cls-2 {
        fill: #65574d;
      }

      .cls-3 {
        fill: #827565;
      }

      .cls-4 {
        fill: #bbac95;
      }

      .cls-5 {
        fill: #a79283;
      }
    </style>
  </defs>
  <path class="cls-4" d="m188.86,187.35c-4.82.06-9.65.33-14.46.1-3.52-.17-4.53,1.01-4.5,4.5.15,18.47-.02,36.94.14,55.41.04,4.06-1.54,5.12-5.32,5.11-3.26-.01-3.87-1.33-3.81-4.18.15-6.99-.06-13.98.1-20.97.06-2.91-.69-4.5-3.88-4.05-.16.02-.33.02-.5,0-4.4-.45-10.19,2.01-12.87-1.12-2.56-2.99-.59-8.62-.75-13.09-.09-2.33-.02-4.66-.01-6.99.01-5.19,3.41-7.45,8.17-5.57,1.73.68,1.42,2.05,1.44,3.31.05,3.33.2,6.67-.03,9.98-.24,3.46,1.69,3.69,4.33,3.64,2.37-.05,4.12-.06,4.1-3.33-.12-18.14-.1-36.28-.01-54.42.01-2.67-1.03-3.49-3.54-3.41-3.66.13-7.32-.09-10.98.05-2.54.09-3.54-.77-3.52-3.42.1-12.65.17-25.3-.03-37.94-.06-4.12,2.45-3.48,4.91-3.51,2.52-.03,5.17-.5,4.84,3.56-.24,2.98.25,6.02-.11,8.97-.57,4.62,1.41,5.93,5.66,5.39,2.13-.27,4.36.22,6.47-.12,4.86-.78,5.49,1.74,5.25,5.72-.15,2.5-.75,3.62-3.43,3.49-3.82-.18-7.66.11-11.48-.1-3.38-.19-3.2,1.88-3.22,4.16-.02,2.37.06,4.33,3.32,4.15,3.32-.18,6.66.03,9.98-.06,3.46-.09,5.04,1.07,4.93,4.93-.26,8.98.03,17.97-.15,26.95-.06,3.11,1,4.04,4.02,3.94,4.98-.16,9.97.06,14.96.12,0,2.93-.02,5.86-.03,8.79Z"/>
  <path class="cls-3" d="m205.65,126.45c0,8.31,0,16.62,0,24.93-.28.31-.56.62-.84.93-5.29.1-10.57.2-15.86.3-.7-.12-.98.22-.94.89-.03,4.33-.24,8.66-.05,12.98.18,4.16-2.49,3.78-5.26,3.98-3.05.22-3.97-.73-3.93-3.86.17-14.65-.07-29.3.16-43.95.07-4.12-.59-5.78-5.32-5.65-12.72.37-12.73.11-12.73-12.42,0-15.32.12-30.64-.09-45.95-.05-3.7,1.27-4.36,4.58-4.31,3.3.05,5.07.3,4.99,4.47-.28,14.81-.03,29.63-.17,44.45-.03,3.15.7,4.35,4.13,4.26,8.48-.21,16.98.02,25.46.07-.03,3.09-.07,6.19-.1,9.28-.16.03-.32.07-.49.1-3.57.61-8.28-1.47-10.49.98-2.35,2.6-.62,7.29-.77,11.06-.13,3.15.08,6.31-.06,9.45-.13,3.08-.16,5.31,4.23,5.14,3.9-.15,4.94-1.64,4.65-5.11-.15-1.81-.03-3.65-.03-5.47q0-7.77,8.07-7.4c.28.28.56.56.85.84Z"/>
  <path class="cls-2" d="m94.52,36.44c6.15,0,12.31.13,18.46-.06,2.86-.09,4.16.42,4.01,3.73-.29,6.48-.25,12.98-.04,19.46.1,3.01-.67,4.02-3.84,3.95-9.48-.22-18.97.07-28.44-.15-3.16-.07-3.95.91-3.85,3.93.09,2.83.19,4.61,3.9,4.52,9.48-.24,18.97.13,28.44-.17,3.95-.13,3.91,1.95,3.7,4.6-.19,2.36,1.24,5.37-3.47,5.28-12.8-.26-25.62-.14-38.42-.04-2.42.02-3.12-.76-3.07-3.12.13-6.65.2-13.31-.04-19.96-.12-3.21.77-4.29,4.11-4.2,8.81.23,17.63-.05,26.45.16,3.28.08,4.6-.51,4.65-4.24.06-3.95-1.33-4.64-4.87-4.55-8.81.24-17.64-.16-26.44.19-4.27.17-3.89-2.12-3.88-4.9,0-2.64-.28-4.77,3.71-4.53,6.3.38,12.64.1,18.96.11Z"/>
  <path class="cls-2" d="m201.5,81.44c-6.49,0-12.98-.08-19.47.04-2.31.04-3.22-.6-3.2-3.06.08-12.98.06-25.96-.06-38.95-.02-2.41.74-3.11,3.11-3.09,12.98.1,25.96.17,38.94-.02,4.12-.06,2.98,2.6,2.97,4.65,0,2.05,1.14,4.78-2.96,4.69-9.48-.2-18.97.1-28.45-.14-3.57-.09-4.56,1.04-4.42,4.5.26,6.15.13,12.31.01,18.47-.05,2.35.73,3.26,3.14,3.22,6.65-.11,13.32-.17,19.97.03,3.3.09,2.91-1.95,2.73-3.9-.17-1.83,1.24-4.63-2.64-4.48-4.15.16-8.33-.15-12.48.09-3.79.22-2.91-2.38-2.79-4.31.13-1.94-1.49-5,2.72-4.94,7.49.11,14.98.1,22.47,0,2.25-.03,2.81.89,2.78,2.97-.1,6.99-.17,13.98.01,20.97.07,2.71-.86,3.36-3.41,3.3-6.32-.16-12.65-.05-18.97-.05Z"/>
  <path class="cls-2" d="m232.83,36.6q9.02-.46,9.01,8.27c0,1.82-.04,3.64,0,5.45.05,1.99-.8,4.53,2.89,4.16,2.72-.27,5.39-.24,5.09-4.16-.14-1.81-.03-3.63-.03-5.45q-.01-8.74,9-8.27c.27.29.54.59.8.88.04,4.49.22,8.99.08,13.47-.08,2.63.81,3.52,3.43,3.39,3.82-.18,7.66.05,11.48-.08,2.4-.08,3.18.85,3.13,3.21-.15,7.65-.13,15.31-.18,22.96-.25.28-.5.56-.75.84q-9.09.51-9.11-8.34-.02-9.47-9.66-9.47c-4.31,0-8.63.16-12.94-.05-2.7-.13-3.43.85-3.3,3.4.19,3.64-.27,7.33.12,10.94.49,4.49-2.4,3.73-4.95,3.7-2.5-.03-5.21.91-5.1-3.65.32-13.43.15-26.87.18-40.31.27-.29.54-.59.81-.88Z"/>
  <path class="cls-5" d="m125.32,146.31c-.1-29.59-.17-59.17-.32-88.76-.02-4.81,3.49-2.74,5.69-3.1,2.62-.42,4.34.07,4.25,3.54-.23,9.14.05,18.29-.17,27.43-.08,3.32,1.03,4.43,4.25,4.15,2.64-.23,5.31-.05,7.97-.04,5.31,0,7.44,3.17,5.63,8.15-.63,1.73-1.93,1.56-3.23,1.57-3.49.03-7,.21-10.47-.05-3.36-.25-4.19,1.08-4.17,4.26.08,14.29-.06,28.59-.13,42.88-3.11-.01-6.21-.02-9.32-.04Z"/>
  <path class="cls-5" d="m188.86,187.35c0-2.93.02-5.86.03-8.79q7.87-.3,7.87-8.53c0-9.47,0-9.4,9.33-9.5,9.25-.1,8.4,1.53,8.44-8.53.03-7.65.09-15.29-.04-22.94-.05-2.73.76-3.88,3.66-3.81,6.48.15,12.97.2,19.44-.04,4.35-.16,3.06,2.8,3.26,5.04.24,2.58.05,4.6-3.52,4.27-3.13-.29-6.33.16-9.46-.13-3.63-.33-4.46,1.2-4.39,4.56.2,8.81-.09,17.62.14,26.43.09,3.53-1.23,4.82-4.55,4.74-3.32-.08-6.65.11-9.97-.04-2.63-.12-3.54.96-3.43,3.51.14,3.49-.09,6.99.07,10.47.11,2.57-.8,3.59-3.42,3.48-4.48-.18-8.97-.13-13.46-.18Z"/>
  <path class="cls-4" d="m125.32,146.31c3.11.01,6.21.02,9.32.04.08.83.21,1.65.22,2.48.23,11.62.23,11.82,12.15,11.56,4.51-.1,6.22,1.03,5.86,5.77-.43,5.62-.42,11.33-.01,16.95.34,4.61-1.44,5.88-5.69,5.42-2.79-.3-5.66.12-8.47-.1-3.17-.25-4.06,1.12-3.9,4.06.19,3.48-.13,6.99.08,10.48.25,4.21-2.65,3.32-5.01,3.39-2.52.08-5.04.49-4.91-3.55.22-6.98.13-13.97.01-20.96-.04-2.6.94-3.57,3.51-3.47,3.65.14,7.33-.14,10.97.08,3.07.19,3.6-1.29,3.52-3.89-.07-2.36-.05-4.29-3.33-4.11-3.65.2-7.32-.04-10.97.07-2.38.07-3.78-.5-3.7-3.28.2-6.97.25-13.95.36-20.92Z"/>
  <path class="cls-5" d="m36.27,62.44c-.18-11.59-.36-23.19-.53-34.78,3-3.01,3.11-6.07.19-9.2.05-4.63.2-9.27.12-13.9-.04-2.29.74-2.87,3.07-3.26,5.92-.98,11.82-.82,17.74-.56-.01,3.1-.03,6.19-.04,9.29-.49.07-.98.18-1.47.21q-9.47.42-9.47,9.73c0,3.79.28,7.61-.08,11.37-.39,4.1.98,5.8,5.12,5.18.96-.14,1.97.06,2.96.11,0,2.92.01,5.85.02,8.77q-8.03.36-8.03,8.31c0,.5,0,.99,0,1.49q0,8.63-8.93,8.09c-.23-.28-.45-.56-.68-.84Z"/>
  <path class="cls-2" d="m147.83,36.44c5.98,0,11.98.25,17.94-.09,3.78-.22,4.21,1.35,4.22,4.57.01,3.4-.39,5.33-4.48,4.81-2.94-.38-5.99.13-8.96-.13-3.15-.27-3.93.99-3.88,3.97.15,9.14-.18,18.28.13,27.41.14,4-1.36,4.68-4.88,4.57-3.19-.1-5.22-.12-5.06-4.39.34-9.13-.07-18.28.14-27.41.08-3.31-.92-4.43-4.19-4.14-2.97.26-6.01-.24-8.96.13-4.31.53-5.28-1.21-5.14-5.24.12-3.22.89-4.26,4.17-4.12,6.3.26,12.62.08,18.94.08Z"/>
  <path class="cls-5" d="m225.9,89.8c6.3-.08,12.62-.37,18.91-.15,3.74.13,5.53-.72,5.06-4.87-.35-3.11.07-6.31-.1-9.45-.2-3.68,2.39-2.9,4.38-2.84,2.06.05,4.97-1.11,4.82,2.93-.14,3.65.07,7.31-.05,10.96-.08,2.35.8,3.29,3.18,3.2,3.48-.13,6.99.2,10.45-.1,3.66-.32,4.41,1.24,4.38,4.56-.03,3.2-.51,4.73-4.28,4.66-15.6-.27-31.21-.22-46.81-.29.02-2.87.05-5.73.07-8.6Z"/>
  <path class="cls-5" d="m83.95,107.59c2.11-.9,5.9,1.86,6.09-3.34.15-4.39-.88-6.52-5.65-5.8-1.77.27-3.63-.05-5.46-.09.02-2.85.05-5.69.07-8.54,11.63-.1,23.26-.11,34.88-.34,3.53-.07,3.15,2.16,3.01,4.29-.13,2.04,1.16,5-2.91,4.85-3.65-.14-7.32.11-10.96-.1-2.95-.17-4.26.7-4.05,3.87.24,3.64-.04,7.31.08,10.96.08,2.34-.78,3.3-3.17,3.2-3.98-.16-7.97-.13-11.96-.18,0-2.93.02-5.86.03-8.79Z"/>
  <path class="cls-5" d="m279.85.74c15.61-.08,31.22-.08,46.82-.28,3.92-.05,4.25,2.08,4.15,5.09-.08,2.55.36,4.93-3.62,4.87-15.77-.25-31.54-.26-47.31-.36-.01-3.1-.02-6.2-.04-9.31Z"/>
  <path class="cls-4" d="m279.85.74c.01,3.1.02,6.2.04,9.31-5.48.11-10.96.34-16.44.28-2.75-.03-3.95.8-3.78,3.69.19,3.15-.17,6.34.09,9.48.33,4.08-1.5,5.02-5.28,5.09-3.75.07-4.91-1.03-4.73-4.79.3-6.31.23-12.65.02-18.97-.1-3.16.72-4.47,4.13-4.36,8.64.27,17.29.21,25.94.28Z"/>
  <path class="cls-5" d="m284.83,18.66c8.16-.07,16.32-.11,24.48-.23,2.22-.03,3.87.17,3.86,3.11-.01,6.99.1,13.98.38,20.97.16,4.02-2.22,4.08-5.15,4.02-2.98-.05-5.86.23-5.54-4.19.19-2.65-.32-5.39.11-7.98.92-5.6-1.89-6.87-6.68-6.67-3.82.16-7.66-.06-11.49-.11.01-2.97.03-5.94.04-8.91Z"/>
  <path class="cls-5" d="m70.97,18.66c2.18-4.23.93-8.76.83-13.09-.1-4.29,1.32-5.34,5.36-5.13,6.13.32,12.29.26,18.42-.02,4.29-.19,3.36,2.65,3.32,4.95-.04,2.24,1.11,5.33-3.21,5.06-3.14-.2-6.32.14-9.46-.1-3.37-.27-4.93.73-4.57,4.37.27,2.8-.13,5.65.1,8.46.27,3.36-.75,5.02-4.39,4.58-2.13-.25-4.31-.13-6.47-.18.03-2.96.05-5.93.08-8.89Z"/>
  <path class="cls-4" d="m225.9,89.8c-.02,2.87-.05,5.73-.07,8.6-14.46.03-28.93-.02-43.39.17-3.48.05-3.76-1.71-3.58-4.33.16-2.2-.73-4.77,3.17-4.72,14.62.19,29.25.2,43.87.28Z"/>
  <path class="cls-5" d="m199.69,116.85c.03-3.09.07-6.19.1-9.28,12.66,0,25.32.01,37.98.02-.02,3.14-.04,6.29-.06,9.43-12.68.24-25.35.66-38.02-.16Z"/>
  <path class="cls-5" d="m169.86,10.49q-.08,7.98,7.68,8c1.66,0,3.36.23,4.97-.03,4.54-.75,5.75,1.21,5.41,5.48-.21,2.66-.71,3.86-3.64,3.79-6.63-.16-13.28-.14-19.91.04-2.95.08-3.67-1.14-3.58-3.82.22-6.47.22-12.94.31-19.41,3.6.98,7.86.99,8.76,5.95Z"/>
  <path class="cls-5" d="m135.93.67c4.48-.06,8.97-.02,13.45-.22,2.62-.12,3.49.9,3.45,3.47-.12,6.81-.2,13.63.02,20.43.14,4.4-2.56,4.11-5.55,4.18-2.92.07-4.84-.32-4.41-3.97.27-2.29.05-4.65.05-6.97q0-7-7-7.44c0-3.16,0-6.32,0-9.48Z"/>
  <path class="cls-4" d="m284.83,18.66c-.01,2.97-.03,5.94-.04,8.91q-6.99,1.65-6.99,9.31c0,1.16,0,2.32,0,3.49-.02,5.84-2.24,7.43-8.09,6.08-1.8-.42-1.96-1.48-1.96-2.87,0-7.31.05-14.61-.04-21.92-.03-2.36.85-3.26,3.2-3.19,4.64.15,9.29.13,13.93.19Z"/>
  <path class="cls-4" d="m111.85,107.6c3.83-.9,5.18.37,5.13,4.52-.22,17.73-.16,35.46-.04,53.18.03,3.76-.91,5.83-5.09,4.93,0-20.88,0-41.75,0-62.63Z"/>
  <path class="cls-5" d="m295.52,50.44c0,2.33,0,4.66,0,6.99,0,5.9-2.41,7.59-8.26,6.04-1.48-.39-1.82-1.22-1.84-2.47-.13-7.31-.45-14.63-.3-21.94.09-4.59,3.95-2.14,6.12-2.55,2.07-.39,4.47-.56,4.3,2.95-.17,3.65-.04,7.32-.03,10.98Z"/>
  <path class="cls-4" d="m135.93.67c0,3.16,0,6.32,0,9.48-2.08,3.03-.91,6.43-.98,9.64-.19,8.85-.06,8.86-9.04,8.56-.29-.31-.58-.61-.87-.92-.03-7.41.12-14.82-.16-22.22-.13-3.6.83-5.25,4.64-4.76,2.11.27,4.27.16,6.4.22Z"/>
  <path class="cls-5" d="m111.85,107.6c0,20.88,0,41.75,0,62.63-3.41.81-4.18-.79-4.13-3.93.16-9.39.02-18.78.08-28.16.01-2.19-.15-3.98-2.96-3.91,0-2.9.02-5.8.02-8.71,2.27-.11,3.07-1.25,2.96-3.54-.17-3.63.16-7.3-.1-10.92-.24-3.38,1.31-4.03,4.13-3.46Z"/>
  <path class="cls-5" d="m116.74,20.51q.28,7.16-6.93,7.18c-5.3.01-10.62-.17-15.91.1-3.74.19-5.2-.74-5.18-4.88.02-3.97,1.44-4.69,4.94-4.51,4.62.23,9.27-.05,13.91-.11,3.26-.1,5.81,2.74,9.17,2.22Z"/>
  <path class="cls-4" d="m169.86,10.49c-.9-4.96-5.16-4.97-8.76-5.95-.57-2.52-.26-4.16,3.01-4.09,6.81.16,13.63.18,20.44.03,4.75-.11,2.96,3.32,3.25,5.58.33,2.55.06,4.54-3.49,4.37-4.81-.22-9.64.01-14.46.05Z"/>
  <path class="cls-4" d="m79,89.83c-.02,2.85-.05,5.69-.07,8.54-7.31.04-14.61,0-21.92.17-3.94.09-2.94-2.65-3.06-4.8-.12-2.24-.26-4.33,3.14-4.22,7.3.24,14.6.22,21.9.31Z"/>
  <path class="cls-4" d="m237.72,117.02c.02-3.14.04-6.29.06-9.43,6.11-.05,12.22.07,18.32-.19,4.44-.19,3.49,2.79,3.62,5.3.13,2.66.16,4.9-3.7,4.69-6.09-.33-12.2-.27-18.3-.37Z"/>
  <path class="cls-4" d="m63.64,60.39c.06,5.96.06,11.91.2,17.87.1,4.27-3.02,3.03-5.24,3.11-2.17.08-4.83.81-4.68-3.09.23-5.62.16-11.25.22-16.88,3.17-.34,6.33-.67,9.5-1.01Z"/>
  <path class="cls-4" d="m27.78,3.44q.32,6.91-6.67,6.91c-4.78,0-9.56,0-14.34,0q-6.99,0-6.64-6.91c9.22,0,18.44,0,27.66,0Z"/>
  <path class="cls-3" d="m35.92,18.46c2.93,3.13,2.81,6.19-.19,9.2-4.8.03-9.61-.1-14.4.15-4.64.24-3.15-3.02-3.43-5.37-.33-2.75.23-4.3,3.62-4.08,4.78.31,9.6.09,14.4.1Z"/>
  <path class="cls-4" d="m116.74,20.51c-3.36.52-5.91-2.32-9.17-2.22.05-4.63.31-9.28.08-13.9-.19-3.65,1.67-4.03,4.55-3.91,2.57.1,4.96-.3,4.74,3.66-.3,5.44-.15,10.91-.19,16.37Z"/>
  <path class="cls-4" d="m223.6,9.42c.06,5.16.09,10.32.2,15.47.08,3.88-2.63,3.45-5.16,3.57-2.54.12-4.13-.35-4.02-3.46.19-5.15.08-10.32.09-15.48,2.96-.03,5.93-.07,8.89-.1Z"/>
  <path class="cls-4" d="m232.47,16.27c-1.36-4.36-.49-8.82-.5-13.23-.01-3.94,3.27-2.31,5.22-2.43,1.88-.12,4.64-1.02,4.6,2.59-.05,5.11-.09,10.21-.13,15.32-3.06-.75-6.12-1.5-9.18-2.25Z"/>
  <path class="cls-4" d="m70.97,18.66c-.03,2.96-.05,5.93-.08,8.89-3.96.04-7.92-.06-11.87.17-3.49.2-5.28-.38-5.32-4.69-.04-4.49,2.05-4.74,5.39-4.57,3.95.2,7.91.15,11.87.2Z"/>
  <path class="cls-5" d="m205.74,14.5c.05,2.81.15,5.62.15,8.42,0,5.13-2.68,7-7.56,5.54-1.84-.55-1.63-1.84-1.62-3.1.02-4.63.11-9.25.18-13.88,3.39-.3,5.69,2.63,8.85,3.01Z"/>
  <path class="cls-3" d="m104.86,125.51c0,2.9-.02,5.8-.02,8.71-3.15.07-6.3.16-9.46.2-5.33.06-6.94-2.3-5.52-7.58.52-1.95,1.83-1.6,3.06-1.58,3.98.04,7.96.16,11.95.26Z"/>
  <path class="cls-3" d="m183.74,222.97c-3.63.97-5.32.15-5.04-4.17.39-5.94.39-11.95,0-17.89-.28-4.29,1.42-5.2,5.09-4.35-.02,8.8-.03,17.6-.05,26.4Z"/>
  <path class="cls-4" d="m205.74,14.5c-3.16-.38-5.45-3.31-8.85-3.01-.06-1.82-.16-3.65-.16-5.47.02-5.29,2.24-6.85,7.35-5.48,1.81.49,1.82,1.68,1.81,3.01-.03,3.65-.1,7.3-.15,10.96Z"/>
  <path class="cls-4" d="m83.95,107.59c0,2.93-.02,5.86-.03,8.79-2.3.06-4.62-.07-6.89.22-4.09.53-5.43-1-5.26-5.15.13-3.29,1.15-4.37,4.3-4.08,2.61.24,5.25.16,7.88.22Z"/>
  <path class="cls-5" d="m232.47,16.27c3.06.75,6.12,1.5,9.18,2.25-.96,1.66-1,3.49-.81,5.31.32,3.08-.15,4.84-4.08,4.81-3.82-.03-5.08-1.24-4.63-4.91.3-2.46.24-4.97.34-7.46Z"/>
  <path class="cls-5" d="m27.78,3.44c-9.22,0-18.44,0-27.66,0C-.36,1.25.56.46,2.74.48c7.48.07,14.96.08,22.45,0,2.23-.02,3.06.81,2.6,2.97Z"/>
  <path class="cls-4" d="m53.91,45.39c0-2.92-.01-5.85-.02-8.77.98-.06,1.95-.17,2.93-.17,3.12.02,6.31-.97,6.3,4.53,0,5.44-3.08,4.62-6.28,4.58-.98-.01-1.95-.11-2.93-.17Z"/>
  <path class="cls-5" d="m223.6,9.42c-2.96.03-5.93.07-8.89.1-.05-1.14-.13-2.29-.15-3.44-.11-5.32,2.35-7.08,7.52-5.57,1.46.42,1.71,1.32,1.69,2.53-.03,2.13-.1,4.26-.16,6.38Z"/>
  <path class="cls-4" d="m56.82,10.03c.01-3.1.03-6.19.04-9.29,2.69.42,6.93-2.55,7.01,3.49.09,6.47.08,6.6-7.05,5.8Z"/>
  <path class="cls-5" d="m63.64,60.39c-3.17.34-6.33.67-9.5,1.01-.02-1.98-.04-3.96-.05-5.94.28-.3.57-.6.85-.9,1.13-.04,2.29.03,3.4-.15,4.97-.81,6.38,1.46,5.3,5.98Z"/>
  <path class="cls-4" d="m185.81,196.52c1.98-.23,2.03,1.1,2.03,2.49,0,7.21,0,14.42,0,21.63,0,1.38-.04,2.75-2.06,2.41.01-8.84.02-17.69.03-26.53Z"/>
  <path class="cls-5" d="m185.81,196.52c-.01,8.84-.02,17.69-.03,26.53-.68-.03-1.36-.05-2.04-.07.02-8.8.03-17.6.05-26.4.67-.02,1.35-.03,2.02-.05Z"/>
  <path class="cls-1" d="m125.04,27.44c.29.31.58.61.87.92-.6-.01-.91-.3-.87-.92Z"/>
  <path class="cls-3" d="m259.6,37.48c-.27-.29-.54-.59-.8-.88.66-.06.97.19.8.88Z"/>
  <path class="cls-4" d="m36.27,62.44c.23.28.45.56.68.84-.55-.02-.84-.24-.68-.84Z"/>
  <path class="cls-3" d="m232.83,36.6c-.27.29-.54.59-.81.88-.16-.69.15-.94.81-.88Z"/>
  <path class="cls-5" d="m204.81,152.31c.28-.31.56-.62.84-.93.11.66-.12,1.02-.84.93Z"/>
  <path class="cls-1" d="m188.01,153.5c-.03-.67.24-1.01.94-.89-.31.3-.63.59-.94.89Z"/>
  <path class="cls-4" d="m54.93,54.56c-.28.3-.57.6-.85.9-.06-.62.24-.91.85-.9Z"/>
  <path class="cls-3" d="m276.78,81.27c.25-.28.5-.56.75-.84.19.67-.11.91-.75.84Z"/>
  <path class="cls-5" d="m205.65,126.45c-.28-.28-.56-.56-.85-.84.64-.08.97.15.85.84Z"/>
</svg>